<?xml version="1.0" standalone="no"?>
<!DOCTYPE svg PUBLIC "-//W3C//DTD SVG 20010904//EN"
 "http://www.w3.org/TR/2001/REC-SVG-20010904/DTD/svg10.dtd">
<svg version="1.0" xmlns="http://www.w3.org/2000/svg"
 width="2000.000000pt" height="1500.000000pt" viewBox="0 0 2000.000000 1500.000000"
 preserveAspectRatio="xMidYMid meet">

<g transform="translate(0.000000,1500.000000) scale(0.100000,-0.100000)"
fill="#000000" stroke="none">
<path d="M15565 10133 c-27 -2 -154 -12 -280 -23 -156 -14 -316 -20 -495 -20
-440 0 -916 -18 -2175 -83 l-820 -42 -2575 0 c-2566 0 -2675 -1 -3430 -35
-775 -35 -1896 -127 -2065 -170 -22 -5 -173 -23 -335 -40 -162 -17 -335 -37
-385 -46 -354 -59 -506 -151 -493 -296 8 -74 81 -211 208 -387 126 -175 156
-229 172 -307 11 -57 16 -60 66 -43 30 10 34 9 76 -34 39 -40 51 -47 122 -62
71 -15 164 -43 164 -49 0 -2 -14 -30 -30 -63 -45 -90 -50 -166 -16 -266 14
-43 44 -110 66 -148 22 -39 40 -72 40 -74 0 -4 -76 -19 -210 -40 -57 -10 -129
-26 -158 -37 -60 -23 -142 -94 -142 -124 0 -11 -7 -30 -16 -42 -13 -20 -24
-22 -97 -22 -108 0 -133 -13 -129 -65 2 -32 -6 -54 -43 -115 -49 -81 -52 -106
-14 -146 18 -19 18 -23 4 -50 -22 -44 -18 -80 21 -174 19 -47 37 -105 40 -130
9 -80 13 -88 44 -98 39 -14 38 -33 -6 -93 -19 -27 -34 -57 -32 -66 4 -22 192
-98 364 -147 458 -131 843 -165 1899 -166 550 0 783 -14 1111 -67 l102 -16 65
27 c85 36 103 33 99 -18 l-4 -39 39 6 c33 6 52 1 109 -28 75 -38 90 -41 129
-23 24 11 29 21 37 73 3 16 11 20 38 20 45 0 60 10 60 40 0 18 -7 25 -30 30
-17 4 -30 9 -30 12 0 13 37 32 61 33 34 0 49 -19 91 -111 35 -75 66 -109 99
-109 15 0 16 5 8 36 -12 40 1 64 32 64 11 0 38 14 61 30 22 17 45 30 49 30 16
0 51 -46 76 -97 14 -29 29 -53 33 -53 5 0 30 9 57 21 79 35 192 36 357 5 160
-30 278 -33 357 -10 66 20 151 20 244 1 137 -29 167 -30 233 -8 78 26 104 26
128 0 l19 -22 520 9 c582 10 1113 11 1405 4 107 -3 355 1 550 9 256 9 850 14
2130 15 2359 3 2375 4 3632 175 283 38 287 39 333 72 94 68 195 236 235 394
27 104 37 220 50 550 7 194 17 317 35 435 28 185 59 717 59 1030 1 198 -22
375 -65 517 -34 110 -106 240 -168 302 -114 115 -378 243 -631 305 -211 52
-281 58 -655 61 -192 1 -372 1 -400 -2z m-3545 -1688 l0 -715 -60 0 -60 0 0
709 0 710 33 4 c17 2 44 5 60 5 l27 2 0 -715z m-6135 640 c17 -16 25 -35 25
-60 0 -100 -147 -118 -165 -21 -7 35 14 90 37 99 34 14 80 6 103 -18z m1060 0
c70 -69 -17 -182 -105 -135 -44 23 -45 115 -3 148 28 21 81 15 108 -13z
m-2205 -330 l0 -305 325 0 325 0 0 305 0 305 60 0 60 0 0 -665 0 -665 -60 0
-60 0 0 300 0 300 -325 0 -325 0 0 -300 0 -300 -60 0 -60 0 0 665 0 665 60 0
60 0 0 -305z m5200 0 l0 -305 325 0 325 0 0 305 0 305 60 0 60 0 0 -665 0
-665 -60 0 -60 0 0 300 0 300 -325 0 -325 0 0 -300 0 -300 -60 0 -60 0 0 665
0 665 60 0 60 0 0 -305z m2797 -80 c107 -32 195 -119 229 -228 24 -76 29 -256
11 -344 -39 -180 -140 -297 -304 -352 -50 -17 -87 -21 -188 -21 l-125 0 0
-234 0 -234 -22 -6 c-13 -3 -42 -6 -66 -6 l-42 0 2 692 3 691 75 24 c41 13 98
27 125 33 68 12 238 4 302 -15z m-6847 -465 l0 -480 -65 0 -65 0 0 474 0 475
28 4 c15 2 44 5 65 6 l37 1 0 -480z m370 380 c0 -55 2 -100 5 -100 3 0 33 28
68 63 84 86 157 121 251 122 106 0 110 -3 82 -67 l-23 -53 -77 4 c-67 2 -84
-1 -133 -24 -30 -15 -82 -53 -114 -85 l-59 -58 0 -331 0 -331 -60 0 -60 0 0
474 0 475 28 4 c15 2 42 5 60 6 l32 1 0 -100z m690 -380 l0 -480 -65 0 -65 0
0 474 0 475 28 4 c15 2 44 5 65 6 l37 1 0 -480z m380 425 l0 -55 47 30 c57 36
133 66 193 75 57 8 171 -10 221 -35 53 -28 104 -83 117 -129 8 -26 12 -158 12
-415 l0 -376 -60 0 -59 0 -3 363 c-3 320 -5 366 -20 394 -40 71 -149 104 -268
79 -39 -9 -96 -26 -126 -40 l-54 -25 0 -385 0 -386 -65 0 -65 0 0 474 0 475
28 4 c15 2 44 5 65 6 l37 1 0 -55z m1680 18 l0 -33 -100 0 c-60 0 -100 -4
-100 -10 0 -5 4 -10 9 -10 5 0 23 -20 39 -45 62 -93 62 -253 2 -349 -74 -116
-249 -175 -435 -147 -66 10 -71 9 -87 -10 -11 -12 -18 -38 -18 -61 0 -72 54
-101 244 -133 212 -36 291 -62 357 -122 58 -52 82 -110 81 -196 0 -88 -29
-148 -97 -199 -77 -58 -158 -80 -312 -86 -200 -7 -328 23 -412 94 -59 51 -81
99 -81 176 1 110 45 192 142 264 l57 42 -24 22 c-69 65 -72 164 -6 224 l21 19
-30 18 c-42 26 -86 91 -100 150 -17 72 -9 194 17 244 37 71 112 130 198 158
69 22 68 22 368 22 l267 1 0 -33z m2495 11 c34 -12 68 -36 107 -74 71 -71 98
-148 98 -276 l0 -84 -339 0 -339 0 -6 -24 c-3 -13 -1 -59 4 -102 19 -147 79
-226 199 -261 87 -25 287 -9 392 32 11 4 18 -6 28 -45 7 -28 12 -53 10 -54 -2
-2 -24 -11 -49 -19 -131 -44 -367 -48 -472 -8 -71 28 -151 98 -184 164 -70
137 -70 370 0 523 51 112 185 218 306 244 62 13 185 5 245 -16z m2235 -3 c71
-26 135 -88 168 -160 21 -46 27 -75 30 -163 l5 -108 -343 0 -342 0 4 -97 c5
-112 25 -168 79 -222 62 -63 107 -76 254 -75 119 0 189 11 256 38 23 10 49
-91 28 -105 -41 -26 -170 -44 -309 -44 -127 1 -152 3 -202 23 -79 32 -158 106
-191 179 -65 144 -59 370 13 519 53 108 182 209 300 234 68 14 187 5 250 -19z
m490 -78 l0 -108 47 54 c93 106 214 161 324 146 56 -8 59 -15 28 -77 l-21 -43
-74 3 c-65 4 -81 1 -130 -23 -30 -15 -82 -52 -114 -82 l-60 -55 0 -334 0 -334
-60 0 -60 0 0 474 0 475 28 4 c15 2 42 5 60 6 l32 1 0 -107z m985 96 c50 -6
94 -15 99 -19 5 -5 4 -28 -4 -54 l-13 -46 -56 8 c-99 13 -223 8 -274 -12 -61
-23 -107 -75 -107 -122 0 -81 37 -109 220 -169 142 -47 185 -67 232 -113 94
-89 85 -260 -17 -350 -70 -61 -128 -77 -285 -77 -112 0 -147 4 -207 23 -40 12
-75 27 -79 33 -3 6 2 31 11 56 19 49 15 48 95 17 34 -13 76 -18 170 -18 112
-1 129 1 168 22 55 29 82 73 82 133 0 82 -59 129 -220 175 -121 34 -173 57
-220 94 -51 40 -70 85 -70 161 0 105 55 186 157 231 85 38 170 45 318 27z"/>
<path d="M12495 8584 c-16 -3 -54 -9 -82 -15 l-53 -10 0 -364 0 -364 46 -7
c186 -28 352 51 419 199 67 146 53 365 -31 474 -49 65 -184 104 -299 87z"/>
<path d="M8451 8580 c-62 -13 -126 -54 -153 -97 -19 -31 -23 -51 -23 -113 1
-88 29 -152 81 -182 81 -47 242 -43 321 9 76 49 113 143 93 236 -14 66 -44
105 -97 129 -51 22 -159 31 -222 18z"/>
<path d="M8313 7737 c-71 -75 -87 -109 -87 -187 -1 -79 15 -107 82 -143 68
-37 155 -51 280 -44 176 8 277 63 289 155 7 55 -2 85 -38 126 -38 44 -107 70
-255 97 -63 11 -136 27 -162 34 -26 8 -50 15 -53 15 -3 0 -29 -24 -56 -53z"/>
<path d="M11258 8555 c-59 -19 -151 -102 -184 -166 -42 -84 -59 -79 252 -79
l277 0 -7 48 c-10 78 -51 148 -103 179 -56 33 -163 41 -235 18z"/>
<path d="M13487 8553 c-61 -20 -139 -90 -178 -157 -52 -91 -68 -86 247 -86
l277 0 -7 52 c-14 105 -68 174 -155 198 -52 14 -128 11 -184 -7z"/>
<path d="M11070 5801 l-35 -6 -3 -328 c-2 -276 0 -333 13 -360 19 -40 43 -56
100 -64 l45 -6 0 32 c0 17 0 34 0 39 1 4 -8 8 -20 10 -48 8 -50 24 -50 369 0
178 -3 322 -7 322 -5 -1 -24 -4 -43 -8z"/>
<path d="M7567 5752 c-22 -24 -21 -65 1 -85 32 -29 78 -19 93 20 22 59 -53
111 -94 65z"/>
<path d="M8195 5756 c-11 -8 -18 -26 -18 -46 0 -54 61 -81 96 -42 50 55 -19
132 -78 88z"/>
<path d="M6880 5390 l0 -340 45 0 45 0 0 155 0 155 165 0 165 0 0 -155 0 -155
50 0 50 0 0 341 0 340 -47 -3 -48 -3 -3 -142 -3 -143 -164 0 -165 0 0 145 0
145 -45 0 -45 0 0 -340z"/>
<path d="M9800 5390 l0 -340 45 0 45 0 0 155 0 155 170 0 170 0 0 -155 0 -155
45 0 45 0 0 340 0 340 -45 0 -44 0 -3 -142 -3 -143 -165 0 -165 0 -3 143 -3
142 -44 0 -45 0 0 -340z"/>
<path d="M7935 5566 c-5 -2 -36 -9 -67 -16 l-58 -11 0 -245 0 -244 45 0 45 0
0 214 0 214 41 7 c22 4 65 4 94 0 l53 -6 5 33 c3 18 2 37 -3 41 -7 8 -138 19
-155 13z"/>
<path d="M8510 5556 l-65 -11 -3 -247 -2 -248 45 0 45 0 0 214 0 214 46 7 c62
9 118 -2 142 -28 31 -33 41 -97 42 -259 l0 -148 45 0 45 0 0 160 c0 199 -11
253 -59 301 -58 58 -137 71 -281 45z"/>
<path d="M9141 5559 c-58 -18 -107 -58 -137 -112 -26 -46 -29 -62 -29 -137 0
-92 18 -142 67 -187 55 -51 170 -69 245 -38 l36 15 -6 -42 c-12 -91 -80 -129
-202 -111 -38 6 -76 12 -84 14 -19 5 -37 -59 -21 -75 6 -6 61 -12 133 -14 113
-3 125 -2 167 20 30 17 53 39 70 69 25 43 25 47 28 311 l3 267 -38 10 c-57 16
-193 22 -232 10z m148 -75 l31 -6 0 -149 0 -148 -31 -16 c-40 -21 -123 -21
-155 0 -44 28 -64 73 -64 143 0 68 16 117 48 145 35 32 104 44 171 31z"/>
<path d="M10612 5557 c-54 -20 -103 -67 -128 -121 -19 -41 -24 -67 -24 -137 0
-76 4 -94 28 -140 42 -80 100 -113 207 -117 107 -5 165 10 165 43 0 45 -9 54
-43 44 -18 -5 -61 -9 -97 -9 -81 0 -123 23 -150 83 -37 80 -43 77 156 77 l177
0 -6 71 c-12 140 -72 208 -189 215 -36 2 -77 -2 -96 -9z m148 -94 c23 -20 33
-40 37 -70 l6 -43 -127 0 -127 0 7 23 c16 52 24 65 54 90 44 38 108 38 150 0z"/>
<path d="M11365 5556 l-60 -11 -3 -337 -2 -338 45 0 45 0 0 99 0 100 35 -15
c50 -21 148 -18 194 5 48 25 95 78 112 128 22 63 17 189 -10 246 -56 115 -177
157 -356 123z m214 -94 c50 -37 65 -69 69 -143 5 -89 -17 -152 -62 -180 -39
-24 -113 -25 -161 -2 l-35 17 0 162 0 163 28 4 c52 9 135 -2 161 -21z"/>
<path d="M11983 5546 c-94 -44 -140 -142 -131 -275 8 -104 58 -181 140 -215
44 -19 173 -21 228 -5 37 11 38 13 33 48 -7 45 -5 43 -37 31 -44 -16 -156 -12
-195 8 -38 19 -71 72 -71 114 l0 28 171 0 172 0 -5 73 c-7 111 -47 175 -125
203 -58 20 -121 17 -180 -10z m156 -71 c17 -8 35 -30 45 -55 28 -71 31 -70
-109 -70 -119 0 -125 1 -125 20 0 31 26 75 57 99 33 24 92 27 132 6z"/>
<path d="M12500 5556 c-30 -6 -61 -15 -67 -19 -10 -6 -13 -67 -13 -248 l0
-239 50 0 50 0 0 214 0 215 44 6 c25 4 63 4 86 0 47 -8 60 2 60 46 0 24 -5 27
-46 33 -63 8 -99 7 -164 -8z"/>
<path d="M12875 5559 c-42 -16 -83 -56 -96 -96 -26 -79 19 -142 134 -189 38
-16 80 -38 93 -51 28 -26 31 -63 6 -86 -26 -24 -108 -30 -172 -13 -61 16 -70
11 -70 -36 0 -35 39 -48 149 -48 143 1 201 42 201 143 0 72 -30 105 -139 152
-53 23 -100 50 -109 63 -19 29 -9 66 23 80 31 14 124 16 158 3 20 -8 27 -6 31
5 11 30 6 62 -11 69 -32 12 -167 15 -198 4z"/>
<path d="M7560 5305 l0 -255 45 0 45 0 0 255 0 255 -45 0 -45 0 0 -255z"/>
<path d="M8190 5305 l0 -255 45 0 45 0 0 255 0 255 -45 0 -45 0 0 -255z"/>
</g>
</svg>
